<svg width="63" height="63" viewBox="0 0 63 63" fill="none" xmlns="http://www.w3.org/2000/svg">
<circle cx="31.5" cy="31.5" r="31.5" fill="#42A458"/>
<circle cx="31.5" cy="31.5" r="31.5" fill="#42A458"/>
<circle cx="31.5" cy="31.5" r="31.5" fill="#30A1AD"/>
<path d="M18.6486 27.3076C16.8358 27.7637 15.252 28.8661 14.1947 30.4077C13.1374 31.9492 12.6795 33.8238 12.9068 35.6792C13.1342 37.5346 14.0312 39.2431 15.4295 40.4837C16.8277 41.7244 18.6308 42.4117 20.5001 42.4167H41.5834C42.9366 42.4157 44.2743 42.1282 45.5085 41.5731C46.7426 41.0179 47.8451 40.2076 48.7435 39.1957C49.642 38.1837 50.3159 36.9929 50.7209 35.7017C51.1259 34.4105 51.2529 33.0481 51.0935 31.7043C50.934 30.3605 50.4918 29.0657 49.7959 27.9051C49.1 26.7445 48.1662 25.7444 47.0559 24.9708C45.9457 24.1971 44.6842 23.6673 43.3544 23.4163C42.0246 23.1653 40.6568 23.1988 39.3409 23.5145L36.7917 24.2083" stroke="white" stroke-width="2" stroke-linecap="round" stroke-linejoin="round"/>
<path d="M39.3409 23.5145C38.6858 20.9205 37.0688 18.6725 34.8178 17.2264C32.5667 15.7803 29.85 15.2443 27.2184 15.7269C24.5868 16.2096 22.2372 17.6748 20.6458 19.8256C19.0544 21.9764 18.3404 24.6518 18.6485 27.3095C18.6485 27.3095 18.9418 29 19.5417 29.9584" stroke="white" stroke-width="2" stroke-linecap="round" stroke-linejoin="round"/>
</svg>
