<svg width="63" height="63" viewBox="0 0 63 63" fill="none" xmlns="http://www.w3.org/2000/svg">
<circle cx="31.5" cy="31.5" r="31.5" fill="#42A458"/>
<circle cx="31.5" cy="31.5" r="31.5" fill="#42A458"/>
<circle cx="31.5" cy="31.5" r="31.5" fill="#A44242"/>
<path d="M48 14H16C14.9391 14 13.9217 14.4214 13.1716 15.1716C12.4214 15.9217 12 16.9391 12 18V26C12 27.0609 12.4214 28.0783 13.1716 28.8284C13.9217 29.5786 14.9391 30 16 30H48C49.0609 30 50.0783 29.5786 50.8284 28.8284C51.5786 28.0783 52 27.0609 52 26V18C52 16.9391 51.5786 15.9217 50.8284 15.1716C50.0783 14.4214 49.0609 14 48 14ZM16 26V18H48V26H16ZM48 34H16C14.9391 34 13.9217 34.4214 13.1716 35.1716C12.4214 35.9217 12 36.9391 12 38V46C12 47.0609 12.4214 48.0783 13.1716 48.8284C13.9217 49.5786 14.9391 50 16 50H48C49.0609 50 50.0783 49.5786 50.8284 48.8284C51.5786 48.0783 52 47.0609 52 46V38C52 36.9391 51.5786 35.9217 50.8284 35.1716C50.0783 34.4214 49.0609 34 48 34ZM16 46V38H48V46H16Z" fill="white"/>
<path d="M42 20H46V24H42V20ZM36 20H40V24H36V20ZM42 40H46V44H42V40ZM36 40H40V44H36V40Z" fill="white"/>
</svg>
