<svg width="63" height="63" viewBox="0 0 63 63" fill="none" xmlns="http://www.w3.org/2000/svg">
<circle cx="31.5" cy="31.5" r="31.5" fill="#FF3E30"/>
<circle cx="31.5" cy="31.5" r="31.5" fill="#FF3E30"/>
<circle cx="31.5" cy="31.5" r="31.5" fill="#FF3E30"/>
<path d="M14 21.0938C14 17.9011 16.0708 15.3125 18.625 15.3125H38.05C43.1606 15.3125 47.3 20.4867 47.3 26.875V38.4375H49.15C50.1733 38.4375 51 39.4709 51 40.75C51 42.0291 50.1733 43.0625 49.15 43.0625H30.65C30.65 46.8926 28.1641 50 25.1 50C21.9839 50 19.55 46.8926 19.55 43.0625H18.625C16.0708 43.0625 14 40.4754 14 37.2812V21.0938ZM32.5 38.4375H39.9V31.5H38.05C37.5413 31.5 37.125 30.9797 37.125 30.3438C37.125 29.7078 37.5413 29.1875 38.05 29.1875H39.9V24.5625C39.9 23.2834 39.0733 22.25 38.05 22.25H34.35C33.3267 22.25 32.5 23.2834 32.5 24.5625V38.4375ZM19.55 22.25C18.5285 22.25 17.7 23.2834 17.7 24.5625V29.1875C17.7 30.4666 18.5285 31.5 19.55 31.5H26.95C27.9733 31.5 28.8 30.4666 28.8 29.1875V24.5625C28.8 23.2834 27.9733 22.25 26.95 22.25H19.55ZM25.1 46.5312C26.632 46.5312 27.875 44.9775 27.875 43.0625C27.875 41.1475 26.632 39.5938 25.1 39.5938C23.568 39.5938 22.325 41.1475 22.325 43.0625C22.325 44.9775 23.568 46.5312 25.1 46.5312Z" fill="white"/>
</svg>
