<svg width="63" height="63" viewBox="0 0 63 63" fill="none" xmlns="http://www.w3.org/2000/svg">
<circle cx="31.5" cy="31.5" r="31.5" fill="#42A458"/>
<circle cx="31.5" cy="31.5" r="31.5" fill="#42A458"/>
<circle cx="31.5" cy="31.5" r="31.5" fill="#CE8D0F"/>
<path d="M51 20.375V46.5C51 47.9587 50.3679 49.3576 49.2426 50.3891C48.1174 51.4205 46.5913 52 45 52H21C19.4087 52 17.8826 51.4205 16.7574 50.3891C15.6321 49.3576 15 47.9587 15 46.5V13.5C15 12.0413 15.6321 10.6424 16.7574 9.61091C17.8826 8.57946 19.4087 8 21 8H37.5L51 20.375ZM42 20.375C40.8065 20.375 39.6619 19.9404 38.818 19.1668C37.9741 18.3932 37.5 17.344 37.5 16.25V10.75H21C20.2044 10.75 19.4413 11.0397 18.8787 11.5555C18.3161 12.0712 18 12.7707 18 13.5V46.5C18 47.2293 18.3161 47.9288 18.8787 48.4445C19.4413 48.9603 20.2044 49.25 21 49.25H45C45.7956 49.25 46.5587 48.9603 47.1213 48.4445C47.6839 47.9288 48 47.2293 48 46.5V20.375H42Z" fill="white"/>
<path d="M34.938 26.2765C35.0773 26.1485 35.2429 26.0469 35.4251 25.9776C35.6073 25.9082 35.8027 25.8726 36 25.8726C36.1973 25.8726 36.3927 25.9082 36.5749 25.9776C36.7571 26.0469 36.9227 26.1485 37.062 26.2765L43.062 31.7765C43.2017 31.9042 43.3125 32.056 43.3881 32.223C43.4637 32.3901 43.5027 32.5692 43.5027 32.75C43.5027 32.9309 43.4637 33.11 43.3881 33.277C43.3125 33.4441 43.2017 33.5958 43.062 33.7235L37.062 39.2235C36.7803 39.4817 36.3983 39.6268 36 39.6268C35.6017 39.6268 35.2197 39.4817 34.938 39.2235C34.6563 38.9653 34.4981 38.6152 34.4981 38.25C34.4981 37.8849 34.6563 37.5347 34.938 37.2765L39.879 32.75L34.938 28.2235C34.7983 28.0958 34.6875 27.9441 34.6119 27.777C34.5362 27.61 34.4973 27.4309 34.4973 27.25C34.4973 27.0692 34.5362 26.8901 34.6119 26.723C34.6875 26.556 34.7983 26.4042 34.938 26.2765ZM31.062 26.2765C30.9227 26.1485 30.7571 26.0469 30.5749 25.9776C30.3927 25.9082 30.1973 25.8726 30 25.8726C29.8027 25.8726 29.6073 25.9082 29.4251 25.9776C29.2429 26.0469 29.0773 26.1485 28.938 26.2765L22.938 31.7765C22.7983 31.9042 22.6875 32.056 22.6119 32.223C22.5362 32.3901 22.4973 32.5692 22.4973 32.75C22.4973 32.9309 22.5362 33.11 22.6119 33.277C22.6875 33.4441 22.7983 33.5958 22.938 33.7235L28.938 39.2235C29.2197 39.4817 29.6017 39.6268 30 39.6268C30.3983 39.6268 30.7803 39.4817 31.062 39.2235C31.3437 38.9653 31.5019 38.6152 31.5019 38.25C31.5019 37.8849 31.3437 37.5347 31.062 37.2765L26.121 32.75L31.062 28.2235C31.2017 28.0958 31.3125 27.9441 31.3881 27.777C31.4638 27.61 31.5027 27.4309 31.5027 27.25C31.5027 27.0692 31.4638 26.8901 31.3881 26.723C31.3125 26.556 31.2017 26.4042 31.062 26.2765Z" fill="white"/>
</svg>
