<svg width="63" height="63" viewBox="0 0 63 63" fill="none" xmlns="http://www.w3.org/2000/svg">
<circle cx="31.5" cy="31.5" r="31.5" fill="#42A458"/>
<circle cx="31.5" cy="31.5" r="31.5" fill="#42A458"/>
<circle cx="31.5" cy="31.5" r="31.5" fill="#4B5EA4"/>
<g clip-path="url(#clip0_493_3)">
<path d="M24.575 17.0751C25.5501 16.1 26.7076 15.3265 27.9816 14.7987C29.2556 14.271 30.6211 13.9994 32 13.9994C33.379 13.9994 34.7445 14.271 36.0185 14.7987C37.2924 15.3265 38.45 16.1 39.425 17.0751C39.5634 17.2184 39.7289 17.3327 39.9119 17.4113C40.0949 17.4899 40.2918 17.5313 40.4909 17.533C40.6901 17.5347 40.8876 17.4968 41.072 17.4214C41.2563 17.3459 41.4238 17.2345 41.5646 17.0937C41.7055 16.9529 41.8168 16.7854 41.8923 16.601C41.9677 16.4167 42.0056 16.2192 42.0039 16.02C42.0022 15.8208 41.9608 15.624 41.8822 15.441C41.8036 15.258 41.6893 15.0925 41.546 14.9541C40.2924 13.7005 38.8042 12.7061 37.1663 12.0276C35.5284 11.3492 33.7729 11 32 11C30.2272 11 28.4717 11.3492 26.8338 12.0276C25.1959 12.7061 23.7076 13.7005 22.454 14.9541C22.1808 15.237 22.0296 15.6159 22.033 16.0092C22.0364 16.4025 22.1942 16.7787 22.4723 17.0568C22.7504 17.335 23.1266 17.4927 23.5199 17.4961C23.9132 17.4995 24.2921 17.3484 24.575 17.0751Z" fill="white"/>
<path d="M28.82 21.3202C29.6638 20.4775 30.8075 20.0041 32 20.0041C33.1925 20.0041 34.3362 20.4775 35.18 21.3202C35.4617 21.6018 35.8437 21.7601 36.242 21.7601C36.6403 21.7601 37.0223 21.6018 37.304 21.3202C37.5857 21.0385 37.7439 20.6565 37.7439 20.2582C37.7439 19.8599 37.5857 19.4778 37.304 19.1962C36.6075 18.4995 35.7807 17.9469 34.8706 17.5699C33.9605 17.1928 32.9851 16.9988 32 16.9988C31.0149 16.9988 30.0395 17.1928 29.1294 17.5699C28.2193 17.9469 27.3925 18.4995 26.696 19.1962C26.4228 19.4791 26.2716 19.858 26.275 20.2513C26.2784 20.6446 26.4362 21.0208 26.7143 21.2989C26.9924 21.577 27.3686 21.7348 27.7619 21.7382C28.1552 21.7416 28.5341 21.5904 28.817 21.3172L28.82 21.3202ZM15.5 41.0002C15.1022 41.0002 14.7206 40.8421 14.4393 40.5608C14.158 40.2795 14 39.898 14 39.5002C14 39.1024 14.158 38.7208 14.4393 38.4395C14.7206 38.1582 15.1022 38.0002 15.5 38.0002C15.8978 38.0002 16.2794 38.1582 16.5607 38.4395C16.842 38.7208 17 39.1024 17 39.5002C17 39.898 16.842 40.2795 16.5607 40.5608C16.2794 40.8421 15.8978 41.0002 15.5 41.0002ZM29 39.5002C29 39.898 29.158 40.2795 29.4393 40.5608C29.7206 40.8421 30.1022 41.0002 30.5 41.0002C30.8978 41.0002 31.2794 40.8421 31.5607 40.5608C31.842 40.2795 32 39.898 32 39.5002C32 39.1024 31.842 38.7208 31.5607 38.4395C31.2794 38.1582 30.8978 38.0002 30.5 38.0002C30.1022 38.0002 29.7206 38.1582 29.4393 38.4395C29.158 38.7208 29 39.1024 29 39.5002ZM36.5 41.0002C36.1022 41.0002 35.7206 40.8421 35.4393 40.5608C35.158 40.2795 35 39.898 35 39.5002C35 39.1024 35.158 38.7208 35.4393 38.4395C35.7206 38.1582 36.1022 38.0002 36.5 38.0002C36.8978 38.0002 37.2794 38.1582 37.5607 38.4395C37.842 38.7208 38 39.1024 38 39.5002C38 39.898 37.842 40.2795 37.5607 40.5608C37.2794 40.8421 36.8978 41.0002 36.5 41.0002ZM41 39.5002C41 39.898 41.158 40.2795 41.4393 40.5608C41.7206 40.8421 42.1022 41.0002 42.5 41.0002C42.8978 41.0002 43.2794 40.8421 43.5607 40.5608C43.842 40.2795 44 39.898 44 39.5002C44 39.1024 43.842 38.7208 43.5607 38.4395C43.2794 38.1582 42.8978 38.0002 42.5 38.0002C42.1022 38.0002 41.7206 38.1582 41.4393 38.4395C41.158 38.7208 41 39.1024 41 39.5002ZM47 39.5002C47 39.898 47.158 40.2795 47.4393 40.5608C47.7206 40.8421 48.1022 41.0002 48.5 41.0002C48.8978 41.0002 49.2794 40.8421 49.5607 40.5608C49.842 40.2795 50 39.898 50 39.5002C50 39.1024 49.842 38.7208 49.5607 38.4395C49.2794 38.1582 48.8978 38.0002 48.5 38.0002C48.1022 38.0002 47.7206 38.1582 47.4393 38.4395C47.158 38.7208 47 39.1024 47 39.5002Z" fill="white"/>
<path d="M16.922 15.026C16.8655 14.8323 16.7705 14.652 16.6427 14.4959C16.5149 14.3398 16.3569 14.211 16.1782 14.1174C15.9994 14.0237 15.8036 13.9671 15.6025 13.9509C15.4014 13.9347 15.1991 13.9592 15.0077 14.023C14.8162 14.0868 14.6397 14.1886 14.4885 14.3222C14.3373 14.4559 14.2147 14.6187 14.1279 14.8008C14.0411 14.983 13.9919 15.1808 13.9834 15.3823C13.9748 15.5839 14.007 15.7852 14.078 15.974L19.418 32H12.5C11.3065 32 10.1619 32.4741 9.31802 33.3181C8.47411 34.162 8 35.3066 8 36.5V42.5C8 43.6935 8.47411 44.8381 9.31802 45.682C10.1619 46.5259 11.3065 47 12.5 47H14C14 47.3979 14.158 47.7794 14.4393 48.0607C14.7206 48.342 15.1022 48.5 15.5 48.5H21.5C21.8978 48.5 22.2794 48.342 22.5607 48.0607C22.842 47.7794 23 47.3979 23 47H41C41 47.3979 41.158 47.7794 41.4393 48.0607C41.7206 48.342 42.1022 48.5 42.5 48.5H48.5C48.8978 48.5 49.2794 48.342 49.5607 48.0607C49.842 47.7794 50 47.3979 50 47H51.5C52.6935 47 53.8381 46.5259 54.682 45.682C55.5259 44.8381 56 43.6935 56 42.5V36.5C56 35.3066 55.5259 34.162 54.682 33.3181C53.8381 32.4741 52.6935 32 51.5 32H44.582L49.922 15.974C49.993 15.7852 50.0252 15.5839 50.0166 15.3823C50.0081 15.1808 49.9589 14.983 49.8721 14.8008C49.7853 14.6187 49.6627 14.4559 49.5115 14.3222C49.3603 14.1886 49.1838 14.0868 48.9923 14.023C48.8009 13.9592 48.5986 13.9347 48.3975 13.9509C48.1964 13.9671 48.0006 14.0237 47.8218 14.1174C47.6431 14.211 47.4851 14.3398 47.3573 14.4959C47.2295 14.652 47.1345 14.8323 47.078 15.026L41.42 32H22.58L16.922 15.026ZM51.5 35C51.8978 35 52.2794 35.1581 52.5607 35.4394C52.842 35.7207 53 36.1022 53 36.5V42.5C53 42.8979 52.842 43.2794 52.5607 43.5607C52.2794 43.842 51.8978 44 51.5 44H12.5C12.1022 44 11.7206 43.842 11.4393 43.5607C11.158 43.2794 11 42.8979 11 42.5V36.5C11 36.1022 11.158 35.7207 11.4393 35.4394C11.7206 35.1581 12.1022 35 12.5 35H51.5Z" fill="white"/>
<path d="M33.5 24.5C33.5 24.8978 33.342 25.2794 33.0607 25.5607C32.7794 25.842 32.3978 26 32 26C31.6022 26 31.2206 25.842 30.9393 25.5607C30.658 25.2794 30.5 24.8978 30.5 24.5C30.5 24.1022 30.658 23.7206 30.9393 23.4393C31.2206 23.158 31.6022 23 32 23C32.3978 23 32.7794 23.158 33.0607 23.4393C33.342 23.7206 33.5 24.1022 33.5 24.5Z" fill="white"/>
</g>
<defs>
<clipPath id="clip0_493_3">
<rect width="48" height="48" fill="white" transform="translate(8 8)"/>
</clipPath>
</defs>
</svg>
