<svg width="29" height="29" viewBox="0 0 29 29" fill="none" xmlns="http://www.w3.org/2000/svg">
<path d="M14.0689 9.40117C11.4982 9.40117 9.4003 11.4991 9.4003 14.0698C9.4003 16.6406 11.4982 18.7385 14.0689 18.7385C16.6396 18.7385 18.7374 16.6406 18.7374 14.0698C18.7374 11.4991 16.6396 9.40117 14.0689 9.40117ZM28.0711 14.0698C28.0711 12.1365 28.0886 10.2207 27.98 8.29092C27.8714 6.04941 27.3601 4.06006 25.721 2.42095C24.0784 0.778344 22.0926 0.270501 19.8512 0.161927C17.9179 0.0533541 16.0021 0.070866 14.0724 0.070866C12.1391 0.070866 10.2233 0.0533541 8.29357 0.161927C6.0521 0.270501 4.06279 0.781846 2.42372 2.42095C0.781138 4.06356 0.273305 6.04941 0.164733 8.29092C0.056162 10.2242 0.0736736 12.14 0.0736736 14.0698C0.0736736 15.9996 0.056162 17.9189 0.164733 19.8487C0.273305 22.0902 0.784641 24.0796 2.42372 25.7187C4.0663 27.3613 6.0521 27.8691 8.29357 27.9777C10.2268 28.0863 12.1426 28.0688 14.0724 28.0688C16.0056 28.0688 17.9214 28.0863 19.8512 27.9777C22.0926 27.8691 24.0819 27.3578 25.721 25.7187C27.3636 24.0761 27.8714 22.0902 27.98 19.8487C28.0921 17.9189 28.0711 16.0031 28.0711 14.0698V14.0698ZM14.0689 21.2532C10.0938 21.2532 6.88565 18.045 6.88565 14.0698C6.88565 10.0946 10.0938 6.88647 14.0689 6.88647C18.044 6.88647 21.2521 10.0946 21.2521 14.0698C21.2521 18.045 18.044 21.2532 14.0689 21.2532ZM21.5463 8.26991C20.6182 8.26991 19.8687 7.5204 19.8687 6.59227C19.8687 5.66414 20.6182 4.91464 21.5463 4.91464C22.4744 4.91464 23.2239 5.66414 23.2239 6.59227C23.2242 6.81266 23.181 7.03094 23.0967 7.2346C23.0125 7.43827 22.889 7.62332 22.7331 7.77915C22.5773 7.93499 22.3923 8.05856 22.1886 8.14277C21.9849 8.22698 21.7667 8.27018 21.5463 8.26991V8.26991Z" fill="#CF0A2C"/>
</svg>
