<svg width="28" height="20" viewBox="0 0 28 20" fill="none" xmlns="http://www.w3.org/2000/svg">
<path d="M28 2.37236C26.9703 2.77326 25.8642 3.04414 24.7013 3.16658C25.9012 2.53575 26.7988 1.5429 27.2268 0.373289C26.0995 0.961624 24.8658 1.37575 23.5791 1.59766C22.7139 0.78596 21.5679 0.247955 20.3191 0.0671694C19.0702 -0.113617 17.7884 0.0729309 16.6725 0.59785C15.5567 1.12277 14.6693 1.95669 14.1482 2.97014C13.627 3.98359 13.5012 5.11988 13.7904 6.20257C11.5062 6.1018 9.27163 5.58015 7.23174 4.67147C5.19185 3.76279 3.39221 2.48739 1.94962 0.928046C1.45636 1.67567 1.17273 2.54248 1.17273 3.46563C1.17218 4.29667 1.4051 5.11499 1.85081 5.84798C2.29653 6.58096 2.94127 7.20594 3.72783 7.66748C2.81563 7.64198 1.92356 7.4254 1.12587 7.03579V7.1008C1.12578 8.26638 1.58464 9.39609 2.42461 10.2982C3.26457 11.2004 4.43389 11.8194 5.73417 12.0503C4.88796 12.2515 4.00077 12.2811 3.13961 12.137C3.50647 13.1399 4.22108 14.0169 5.1834 14.6452C6.14572 15.2735 7.30757 15.6217 8.5063 15.641C6.47139 17.0446 3.95829 17.806 1.37127 17.8026C0.913004 17.8027 0.455128 17.7792 0 17.7322C2.62597 19.2157 5.68279 20.003 8.80472 20C19.3729 20 25.1502 12.3092 25.1502 5.63915C25.1502 5.42245 25.144 5.20358 25.1329 4.98687C26.2567 4.27281 27.2267 3.38858 27.9975 2.37562L28 2.37236V2.37236Z" fill="#CF0A2C"/>
</svg>
