<svg width="29" height="29" viewBox="0 0 29 29" fill="none" xmlns="http://www.w3.org/2000/svg">
<path d="M26.6441 7.27513C22.4556 0.800079 13.9042 -1.12494 7.27246 2.9001C0.815258 6.92513 -1.27897 15.6752 2.90949 22.1502L3.25853 22.6752L1.86237 27.9253L7.09795 26.5253L7.6215 26.8753C9.89025 28.1003 12.3335 28.8003 14.7768 28.8003C17.3946 28.8003 20.0124 28.1003 22.2811 26.7003C28.7383 22.5002 30.658 13.9252 26.6441 7.27513V7.27513ZM22.9792 20.7502C22.2811 21.8002 21.4085 22.5002 20.1869 22.6752C19.4888 22.6752 18.6162 23.0252 15.1258 21.6252C12.159 20.2252 9.71573 17.9502 7.97054 15.3252C6.92343 14.1002 6.39987 12.5252 6.22535 10.9502C6.22535 9.55015 6.74891 8.32514 7.6215 7.45013C7.97054 7.10013 8.31958 6.92513 8.66862 6.92513H9.54121C9.89025 6.92513 10.2393 6.92513 10.4138 7.62513C10.7628 8.50014 11.6354 10.6002 11.6354 10.7752C11.81 10.9502 11.81 11.3002 11.6354 11.4752C11.81 11.8252 11.6354 12.1752 11.4609 12.3502C11.2864 12.5252 11.1119 12.8752 10.9374 13.0502C10.5883 13.2252 10.4138 13.5752 10.5883 13.9252C11.2864 14.9752 12.159 16.0252 13.0316 16.9002C14.0787 17.7752 15.1258 18.4752 16.3475 19.0002C16.6965 19.1752 17.0455 19.1752 17.2201 18.8252C17.3946 18.4752 18.2672 17.6002 18.6162 17.2502C18.9652 16.9002 19.1398 16.9002 19.4888 17.0752L22.2811 18.4752C22.6301 18.6502 22.9792 18.8252 23.1537 19.0002C23.3282 19.5252 23.3282 20.2252 22.9792 20.7502V20.7502Z" fill="#CF0A2C"/>
</svg>
